<?xml version="1.0" encoding="iso-8859-1"?>
<!-- Generator: Adobe Illustrator 21.0.0, SVG Export Plug-In . SVG Version: 6.00 Build 0)  -->
<svg xmlns="http://www.w3.org/2000/svg" xmlns:xlink="http://www.w3.org/1999/xlink" version="1.1" id="Capa_1" x="0px" y="0px" viewBox="0 0 512 512" style="enable-background:new 0 0 512 512;" xml:space="preserve" width="512" height="512">
<g>
	<path d="M445.993,226.689c-1.295-4.349-4.489-7.878-8.688-9.599c-4.2-1.722-8.951-1.448-12.925,0.741l-27.069,14.909V135   c0-74.439-60.561-135-135-135C203.517,0,153.39,37.784,134.913,90.343l-75.571,42.663c-4.709,2.66-7.622,7.65-7.622,13.06   s2.912,10.399,7.622,13.06l67.97,38.62v34.862l-26.847-14.89c-3.947-2.188-8.67-2.483-12.86-0.805   c-4.189,1.681-7.399,5.158-8.739,9.469c-10.336,33.248-15.197,62.899-14.447,88.13C67.707,425.252,154.647,512,262.346,512   c109.141,0,197.934-88.793,197.934-197.935C460.28,287.918,455.473,258.521,445.993,226.689z M262.312,30   c57.897,0,105,47.103,105,105v109.428l-42.285-31.462c-5.314-3.955-12.594-3.955-17.908,0l-44.806,33.338l-44.806-33.338   c-5.314-3.955-12.594-3.955-17.908,0l-42.286,31.463V135C157.312,77.103,204.415,30,262.312,30z M115.636,156.473l-18.421-10.407   l30.238-17.064c-0.087,1.99-0.14,3.988-0.14,5.999v28.166L115.636,156.473z M262.346,482c-91.369,0-165.137-73.961-167.941-168.38   c-0.51-17.183,2.254-37.839,8.047-60.496l45.064,24.993c5.153,2.858,11.502,2.435,16.229-1.083l44.807-33.338l44.806,33.338   c5.314,3.955,12.594,3.955,17.908,0l44.806-33.338l44.807,33.338c4.715,3.507,11.044,3.939,16.19,1.104l45.081-24.829   c5.399,22.046,8.129,42.419,8.129,60.756C430.28,406.665,354.945,482,262.346,482z"/>
	<path d="M203.354,138c8.262,0,15-6.738,15-15c0-8.262-6.738-15-15-15s-15,6.739-15,15C188.354,131.262,195.092,138,203.354,138z"/>
</g>















</svg>
